<svg width="800" height="500" viewBox="0 0 800 500" fill="none" xmlns="http://www.w3.org/2000/svg">
  <!-- Fundo colorido -->
  <rect width="800" height="500" fill="#F0F9FF"/>
  
  <!-- Sol -->
  <circle cx="700" cy="100" r="60" fill="#FFDE59"/>
  <circle cx="700" cy="100" r="45" fill="#FFE980"/>
  
  <!-- Grama -->
  <path d="M0 400 L800 400 L800 500 L0 500 Z" fill="#63D471"/>
  
  <!-- Escola -->
  <rect x="150" y="200" width="300" height="200" fill="#FF70A6"/>
  <rect x="250" y="320" width="100" height="80" fill="#FFFFFF"/>
  <rect x="275" y="360" width="50" height="40" fill="#4E9AF1"/>
  <polygon points="150,200 300,100 450,200" fill="#9C6ADE"/>
  
  <!-- Crianças -->
  <!-- Criança 1 -->
  <circle cx="550" cy="350" r="30" fill="#FFD699"/>
  <rect x="535" y="380" width="30" height="60" fill="#4E9AF1"/>
  <rect x="520" y="390" width="15" height="40" fill="#4E9AF1"/>
  <rect x="565" y="390" width="15" height="40" fill="#4E9AF1"/>
  
  <!-- Criança 2 -->
  <circle cx="620" cy="360" r="25" fill="#FFD699"/>
  <rect x="610" y="385" width="20" height="50" fill="#FF70A6"/>
  <rect x="600" y="395" width="10" height="30" fill="#FF70A6"/>
  <rect x="630" y="395" width="10" height="30" fill="#FF70A6"/>
  
  <!-- Criança 3 -->
  <circle cx="680" cy="350" r="28" fill="#FFD699"/>
  <rect x="665" y="378" width="30" height="55" fill="#63D471"/>
  <rect x="655" y="388" width="12" height="35" fill="#63D471"/>
  <rect x="693" y="388" width="12" height="35" fill="#63D471"/>
  
  <!-- Livros -->
  <rect x="50" y="350" width="60" height="15" fill="#FF5757"/>
  <rect x="55" y="335" width="60" height="15" fill="#4E9AF1"/>
  <rect x="60" y="320" width="60" height="15" fill="#9C6ADE"/>
  <rect x="65" y="305" width="60" height="15" fill="#63D471"/>
  
  <!-- Árvore -->
  <rect x="750" y="300" width="20" height="100" fill="#8B4513"/>
  <circle cx="760" cy="250" r="50" fill="#63D471"/>
  
  <!-- Título -->
  <text x="400" y="50" font-family="Comic Sans MS, Comic Sans, cursive" font-size="30" font-weight="bold" text-anchor="middle" fill="#4E9AF1">Projeto Educação para Todos</text>
</svg>