<svg width="800" height="500" viewBox="0 0 800 500" fill="none" xmlns="http://www.w3.org/2000/svg">
  <!-- Fundo colorido -->
  <rect width="800" height="500" fill="#F0F9FF"/>
  
  <!-- Sol -->
  <circle cx="700" cy="100" r="60" fill="#FFDE59"/>
  <circle cx="700" cy="100" r="45" fill="#FFE980"/>
  
  <!-- Grama -->
  <path d="M0 400 L800 400 L800 500 L0 500 Z" fill="#63D471"/>
  
  <!-- Mesa de estudo -->
  <rect x="200" y="300" width="400" height="20" fill="#8B4513"/>
  <rect x="220" y="320" width="20" height="80" fill="#8B4513"/>
  <rect x="560" y="320" width="20" height="80" fill="#8B4513"/>
  
  <!-- Livros na mesa -->
  <rect x="250" y="270" width="60" height="15" fill="#FF5757"/>
  <rect x="255" y="255" width="60" height="15" fill="#4E9AF1"/>
  <rect x="260" y="240" width="60" height="15" fill="#9C6ADE"/>
  
  <!-- Caderno aberto -->
  <rect x="350" y="250" width="100" height="50" fill="#FFFFFF" stroke="#4E9AF1" stroke-width="2"/>
  <line x1="400" y1="250" x2="400" y2="300" stroke="#4E9AF1" stroke-width="2"/>
  <line x1="360" y1="260" x2="390" y2="260" stroke="#4E9AF1" stroke-width="1"/>
  <line x1="360" y1="270" x2="390" y2="270" stroke="#4E9AF1" stroke-width="1"/>
  <line x1="360" y1="280" x2="390" y2="280" stroke="#4E9AF1" stroke-width="1"/>
  <line x1="410" y1="260" x2="440" y2="260" stroke="#4E9AF1" stroke-width="1"/>
  <line x1="410" y1="270" x2="440" y2="270" stroke="#4E9AF1" stroke-width="1"/>
  <line x1="410" y1="280" x2="440" y2="280" stroke="#4E9AF1" stroke-width="1"/>
  
  <!-- Lápis -->
  <rect x="480" y="250" width="5" height="40" fill="#FFDE59"/>
  <polygon points="480,250 485,250 482.5,240" fill="#FF5757"/>
  
  <!-- Voluntário (adulto) -->
  <circle cx="250" cy="200" r="35" fill="#FFD699"/>
  <rect x="235" y="235" width="30" height="70" fill="#9C6ADE"/>
  <rect x="220" y="245" width="15" height="50" fill="#9C6ADE"/>
  <rect x="265" y="245" width="15" height="50" fill="#9C6ADE"/>
  
  <!-- Criança 1 -->
  <circle cx="400" cy="180" r="25" fill="#FFD699"/>
  <rect x="390" y="205" width="20" height="50" fill="#FF70A6"/>
  <rect x="380" y="215" width="10" height="30" fill="#FF70A6"/>
  <rect x="410" y="215" width="10" height="30" fill="#FF70A6"/>
  
  <!-- Criança 2 -->
  <circle cx="550" cy="200" r="28" fill="#FFD699"/>
  <rect x="535" y="228" width="30" height="55" fill="#63D471"/>
  <rect x="525" y="238" width="12" height="35" fill="#63D471"/>
  <rect x="563" y="238" width="12" height="35" fill="#63D471"/>
  
  <!-- Título -->
  <text x="400" y="50" font-family="Arial" font-size="30" font-weight="bold" text-anchor="middle" fill="#4E9AF1">Voluntariado: Ensino e Educação</text>
  
  <!-- Árvore -->
  <rect x="100" y="300" width="20" height="100" fill="#8B4513"/>
  <circle cx="110" cy="250" r="50" fill="#63D471"/>
</svg>