<svg width="800" height="500" viewBox="0 0 800 500" fill="none" xmlns="http://www.w3.org/2000/svg">
  <!-- Fundo colorido -->
  <rect width="800" height="500" fill="#FFF5F5"/>
  
  <!-- Sol -->
  <circle cx="700" cy="100" r="60" fill="#FFDE59"/>
  <circle cx="700" cy="100" r="45" fill="#FFE980"/>
  
  <!-- Grama -->
  <path d="M0 400 L800 400 L800 500 L0 500 Z" fill="#63D471"/>
  
  <!-- Mesa com comida -->
  <rect x="200" y="300" width="400" height="20" fill="#8B4513"/>
  <rect x="220" y="320" width="20" height="80" fill="#8B4513"/>
  <rect x="560" y="320" width="20" height="80" fill="#8B4513"/>
  
  <!-- Pratos de comida -->
  <circle cx="300" cy="280" r="40" fill="#FFFFFF" stroke="#4E9AF1" stroke-width="3"/>
  <circle cx="300" cy="280" r="30" fill="#FF9F43"/>
  
  <circle cx="400" cy="280" r="40" fill="#FFFFFF" stroke="#4E9AF1" stroke-width="3"/>
  <circle cx="400" cy="280" r="30" fill="#63D471"/>
  
  <circle cx="500" cy="280" r="40" fill="#FFFFFF" stroke="#4E9AF1" stroke-width="3"/>
  <circle cx="500" cy="280" r="30" fill="#FF70A6"/>
  
  <!-- Frutas espalhadas -->
  <circle cx="100" cy="350" r="20" fill="#FF5757"/> <!-- Maçã -->
  <circle cx="150" cy="370" r="25" fill="#FFDE59"/> <!-- Laranja -->
  <circle cx="650" cy="360" r="30" fill="#63D471"/> <!-- Melancia -->
  <circle cx="700" cy="350" r="15" fill="#9C6ADE"/> <!-- Uva -->
  
  <!-- Crianças -->
  <!-- Criança 1 -->
  <circle cx="250" cy="200" r="30" fill="#FFD699"/>
  <rect x="235" y="230" width="30" height="60" fill="#4E9AF1"/>
  <rect x="220" y="240" width="15" height="40" fill="#4E9AF1"/>
  <rect x="265" y="240" width="15" height="40" fill="#4E9AF1"/>
  
  <!-- Criança 2 -->
  <circle cx="400" cy="180" r="25" fill="#FFD699"/>
  <rect x="390" y="205" width="20" height="50" fill="#FF70A6"/>
  <rect x="380" y="215" width="10" height="30" fill="#FF70A6"/>
  <rect x="410" y="215" width="10" height="30" fill="#FF70A6"/>
  
  <!-- Criança 3 -->
  <circle cx="550" cy="200" r="28" fill="#FFD699"/>
  <rect x="535" y="228" width="30" height="55" fill="#63D471"/>
  <rect x="525" y="238" width="12" height="35" fill="#63D471"/>
  <rect x="563" y="238" width="12" height="35" fill="#63D471"/>
  
  <!-- Título -->
  <text x="400" y="50" font-family="Arial" font-size="30" font-weight="bold" text-anchor="middle" fill="#4E9AF1">Projeto Alimentação Saudável</text>
  
  <!-- Cenouras -->
  <path d="M50 320 L70 280 L90 320 Z" fill="#FF9F43"/>
  <path d="M60 280 L60 250 L80 270 Z" fill="#63D471"/>
  
  <!-- Cesta -->
  <path d="M120 320 C100 320, 80 300, 80 280 C80 260, 100 240, 120 240 C140 240, 160 260, 160 280 C160 300, 140 320, 120 320 Z" fill="#8B4513" fill-opacity="0.5"/>
</svg>